<svg role="img" viewBox="0 0 24 24" xmlns="http://www.w3.org/2000/svg"><title>Google Calendar</title><path fill="#4285F4" d="M18.316 5.684H24v12.632h-5.684V5.684zM5.684 24h12.632v-5.684H5.684V24zM18.316 5.684V0H5.684v5.684h12.632z"/><path fill="#34A853" d="M5.684 18.316H0V5.684h5.684v12.632z"/><path fill="#EA4335" d="M18.316 5.684H24V0h-5.684v5.684z"/><path fill="#FBBC04" d="M0 18.316h5.684V24H0v-5.684z"/><path fill="#188038" d="M0 18.316V5.684h5.684v12.632H0z" opacity=".0"/><path fill="#1967D2" d="M9.2 15.4l-1.2-.9c.4-.6.8-1.2 1-1.9.2-.7.4-1.4.4-2.1 0-.8-.1-1.5-.4-2.1-.3-.7-.7-1.2-1.2-1.7-.5-.5-1.1-.8-1.7-1.1-.7-.3-1.4-.4-2.1-.4v1.8c.5 0 .9.1 1.3.3.4.2.7.4 1 .7.3.3.5.7.6 1.1.2.4.2.9.2 1.4 0 .5-.1.9-.2 1.3-.2.4-.4.8-.6 1.1-.3.3-.6.6-1 .7-.4.2-.8.3-1.3.3V16c.7 0 1.4-.1 2.1-.4.7-.3 1.2-.6 1.7-1.1.5-.5.9-1 1.2-1.7.1-.2.1-.3.2-.5z" opacity="0"/><path fill="#4285F4" d="M14.4 8.8h-1.6V7.2h1.6V5.6h1.6v1.6H17.6v1.6H16v1.6h-1.6V8.8zm0 4.8h1.6v1.6h-1.6v1.6H12.8v-1.6h-1.6v-1.6h1.6v-1.6h1.6v1.6z" opacity="0"/></svg>
