<svg role="img" viewBox="0 0 24 24" xmlns="http://www.w3.org/2000/svg"><title>Notion</title><path fill="#000000" d="M4.459 4.208c.746.606 1.026.56 2.428.466l13.215-.793c.28 0 .047-.28-.046-.326L18.002 2.07c-.466-.373-.84-.466-1.633-.42l-12.844.84c-.466.046-.56.28-.373.466l1.308 1.252zm.793 2.754v13.844c0 .746.373 1.026 1.213.98l14.523-.84c.84-.046.933-.56.933-1.166V5.916c0-.606-.233-.933-.746-.886l-15.177.886c-.56.047-.746.327-.746.886v.06zm14.337.42c.093.42 0 .84-.42.886l-.7.14v10.264c-.607.327-1.166.514-1.633.514-.746 0-.933-.234-1.493-.934l-4.573-7.186v6.953l1.446.327s0 .84-1.166.84l-3.22.187c-.093-.187 0-.653.327-.746l.84-.233V9.854L7.822 9.76c-.094-.42.14-1.026.793-1.073l3.453-.234 4.76 7.28v-6.44l-1.213-.14c-.094-.513.28-.886.746-.933l3.228-.187z"/></svg>
